<?xml version="1.0" encoding="UTF-8" standalone="no"?>
<svg
   width="480"
   height="480"
   viewBox="0 0 480 480"
   version="1.1"
   xml:space="preserve"
   style="clip-rule:evenodd;fill-rule:evenodd;stroke-linejoin:round;stroke-miterlimit:2"
   id="svg1422"
   sodipodi:docname="source.svg"
   inkscape:version="1.1 (c68e22c387, 2021-05-23)"
   xmlns:inkscape="http://www.inkscape.org/namespaces/inkscape"
   xmlns:sodipodi="http://sodipodi.sourceforge.net/DTD/sodipodi-0.dtd"
   xmlns="http://www.w3.org/2000/svg"
   xmlns:svg="http://www.w3.org/2000/svg"
   xmlns:serif="http://www.serif.com/"><sodipodi:namedview
   id="namedview1424"
   pagecolor="#ffffff"
   bordercolor="#111111"
   borderopacity="1"
   inkscape:pageshadow="0"
   inkscape:pageopacity="0"
   inkscape:pagecheckerboard="1"
   showgrid="false"
   inkscape:zoom="0.7899708577320718"
   inkscape:cx="290.5170459817617"
   inkscape:cy="467.1058386373423"
   inkscape:window-width="2554"
   inkscape:window-height="1352"
   inkscape:window-x="1275"
   inkscape:window-y="4"
   inkscape:window-maximized="0"
   inkscape:current-layer="svg1422" />
    <g
   id="Logo"
   transform="matrix(0.6373222255306203,0,0,0.6373229999999997,-259.0943836206375,-732.7247597882732)"
   inkscape:export-filename="C:\work\repos\homeassistant-addons\tandoor\logo.png"
   inkscape:export-xdpi="51.20000076293945"
   inkscape:export-ydpi="51.20000076293945">
        <g
   id="Kreis"
   transform="matrix(1.44936,0,0,1.50279,387.258,1039.34)">
            <ellipse
   cx="273.1229858398438"
   cy="324.0150146484375"
   rx="259.8219909667969"
   ry="250.5839996337891"
   style="fill:url(#_Linear1)"
   id="ellipse1376" />
            <clipPath
   id="_clip2">
                <ellipse
   cx="273.1229858398438"
   cy="324.0150146484375"
   rx="259.8219909667969"
   ry="250.5839996337891"
   id="ellipse1378" />
            </clipPath>
            <g
   clip-path="url(#_clip2)"
   id="g1392">
                <g
   id="Shadow"
   transform="matrix(1.10322,0,0,1.064,-5.58287,50.5786)">
                    <path
   d="M 156.285,427.208 389.554,660.4769999999997 668.8029999999996,495.551 374.012,200.761 Z"
   style="fill:#161616"
   id="path1381" />
                    <g
   transform="translate(-4.22105,0.7758639999999995)"
   id="g1385">
                        <path
   d="M 208.628,178.613 485.935,455.919 590.027,364.63 296.923,71.52599999999999 l -2.748,67.463 z"
   style="fill:#161616"
   id="path1383" />
                    </g>
                    <g
   transform="translate(-85.3876,27.8512)"
   id="g1389">
                        <path
   d="m 310.385,145.641 277.307,277.307 2.7,-61.591 L 297.288,68.253 l -3.113,70.736 z"
   style="fill:#161616"
   id="path1387" />
                    </g>
                </g>
            </g>
        </g>
        <g
   transform="matrix(1.471,0,0,1.471,406.537,1149.69)"
   id="g1397">
            <path
   d="m 256.049,220 c 30.173,-0.006 56.607,-12.69 73.339,-25.866 16.962,-13.38 41.511,-10.728 55.223,5.966 22.518,27.276 35.987,61.844 35.987,99.43 0,61.55 -37.994,137.571 -90.834,164.1760000000001 -22.729,11.4440000000001 -46.298,16.8800000000001 -73.666,16.8930000000001 v 0 H 256.049 256 v 0 C 228.632,480.586 205.063,475.15 182.334,463.706 129.494,437.101 91.5,361.08 91.5,299.53 91.5,261.944 104.969,227.376 127.487,200.1 c 13.712,-16.694 38.261,-19.346 55.223,-5.966 16.732,13.176 43.166,25.86 73.339,25.866 z"
   style="fill:#ffcb76"
   id="path1395" />
        </g>
        <g
   id="Flame-2"
   serif:id="Flame 2"
   transform="matrix(0.9657249999999999,0,0,0.89175,164.497,436.391)">
            <path
   d="M 604.408,844.3139999999998 C 601.9809999999996,840.845 601.9619999999996,836.056 604.3619999999998,832.565 606.763,829.0739999999999 611.0049999999996,827.721 614.769,829.2459999999997 633.87,836.869 658.8329999999998,848.629 678.2069999999996,864.4519999999995 718.5259999999999,897.3809999999997 729.5499999999999,919.407 738.552,942.091 c 10.6559999999998,26.8519999999997 12.2329999999998,54.5889999999999 9.9629999999996,73.989 C 742.018,1071.61 700.355,1117.5 641.0339999999996,1117.5 581.7129999999998,1117.5 534.493,1072.05 533.5529999999996,1016.08 532.9859999999996,982.3719999999998 543.985,955.4429999999997 555.988,936.22 c 2.9939999999997,-4.783 8.606,-6.751 13.621,-4.7760000000002 C 574.623,933.4189999999997 577.7569999999999,938.831 577.215,944.58 c -1.722,12.136 -2.8530000000002,24.7919999999998 -2.283,34.904 C 576.863,1013.7 597.171,1022.5 618.0829999999998,1022.29 640.3709999999997,1022.08 662.9249999999999,1003.17 654.797,954.8949999999997 647.69,912.681 622.3619999999998,870.1939999999998 604.408,844.3139999999998 Z"
   style="fill:#ff6f00"
   id="path1399" />
            <clipPath
   id="_clip3">
                <path
   d="M 604.408,844.3139999999998 C 601.9809999999996,840.845 601.9619999999996,836.056 604.3619999999998,832.565 606.763,829.0739999999999 611.0049999999996,827.721 614.769,829.2459999999997 633.87,836.869 658.8329999999998,848.629 678.2069999999996,864.4519999999995 718.5259999999999,897.3809999999997 729.5499999999999,919.407 738.552,942.091 c 10.6559999999998,26.8519999999997 12.2329999999998,54.5889999999999 9.9629999999996,73.989 C 742.018,1071.61 700.355,1117.5 641.0339999999996,1117.5 581.7129999999998,1117.5 534.493,1072.05 533.5529999999996,1016.08 532.9859999999996,982.3719999999998 543.985,955.4429999999997 555.988,936.22 c 2.9939999999997,-4.783 8.606,-6.751 13.621,-4.7760000000002 C 574.623,933.4189999999997 577.7569999999999,938.831 577.215,944.58 c -1.722,12.136 -2.8530000000002,24.7919999999998 -2.283,34.904 C 576.863,1013.7 597.171,1022.5 618.0829999999998,1022.29 640.3709999999997,1022.08 662.9249999999999,1003.17 654.797,954.8949999999997 647.69,912.681 622.3619999999998,870.1939999999998 604.408,844.3139999999998 Z"
   id="path1401" />
            </clipPath>
            <g
   clip-path="url(#_clip3)"
   id="g1408">
                <g
   transform="matrix(1.28784,-0.270602,0.285942,1.59598,247.349,825.2089999999999)"
   id="g1406">
                    <path
   d="m 255.004,46.957 c 24.543,11.588 50.996,38.49 58.303,73.204 12.13,57.63 -21.736,73.628 -50.811,72.242 C 215.889,190.181 200.194,153.246 231.326,108.9 250.631,81.40099999999999 232.663,36.408 255.004,46.957 Z"
   style="fill:#ffd100"
   id="path1404" />
                </g>
            </g>
        </g>
        <g
   id="Hut"
   transform="matrix(1.521,0,0,1.521,393.566,1149.06)">
            <path
   d="m 228.197,408.524 c -5.499,0 -10.384,-1.836 -14.173,-4.905 -2.248,-1.825 -3.104,-4.867 -2.136,-7.595 0.968,-2.729 3.549,-4.552 6.444,-4.552 13.882,-0.072 37.78,-0.076 37.78,-0.076 0,0 23.897,0.004 37.779,0.076 2.895,0 5.476,1.823 6.444,4.552 0.968,2.728 0.112,5.77 -2.136,7.595 -3.789,3.0690000000001 -8.673,4.905 -14.1720000000001,4.905 z M 217.24,378.877 c -3.032,0 -5.94,-1.206 -8.082,-3.352 -2.143,-2.146 -3.344,-5.0559999999999 -3.338,-8.089 0.011,-6.317 0.022,-12.8969999999998 0.022,-12.8969999999998 0,-4.116 -2.745,-7.7250000000001 -6.711,-8.825 -13.818,-3.873 -23.931,-16.2459999999999 -23.931,-30.891 0,-17.7529999999999 14.859,-32.166 33.162,-32.166 0,0 0,0 0,0 7.039,0 13.313,-4.4390000000001 15.655,-11.0760000000001 3.226,-9.1909999999999 12.394,-19.566 31.983,-19.583 v 0 h 0.223 v 0 c 19.589,0.017 28.757,10.3920000000001 31.983,19.583 2.343,6.637 8.616,11.0760000000001 15.655,11.0760000000001 0,0 0,0 0,0 18.303,0 33.162,14.4130000000001 33.162,32.166 0,14.6449999999999 -10.112,27.0179999999999 -23.93,30.891 -3.966,1.1000000000001 -6.711,4.7089999999999 -6.712,8.825 0,0 0.005,6.588 0.01,12.908 0.003,3.031 -1.2,5.938 -3.342,8.0820000000001 -2.142,2.143 -5.048,3.3480000000002 -8.078,3.3480000000002 -19.356,0 -58.367,0 -77.731,-5e-13 z"
   style="fill:#161616"
   id="path1411" />
        </g>
    </g>
    <defs
   id="defs1420">
        <linearGradient
   id="_Linear1"
   x1="0"
   y1="0"
   x2="1"
   y2="0"
   gradientUnits="userSpaceOnUse"
   gradientTransform="matrix(0,0,0,0,3755.77,81.7179)"><stop
     offset="0"
     style="stop-color:rgb(39,39,39);stop-opacity:1"
     id="stop1415" /><stop
     offset="1"
     style="stop-color:rgb(108,108,108);stop-opacity:1"
     id="stop1417" /></linearGradient>
    </defs>
</svg>
